/* XPM */
static char *dummy[]={
"32 32 71 2",
".i c #000000",
".h c #100f0e",
".R c #1e1c1a",
".S c #1f1d1b",
".Y c #2d2b27",
".t c #2e2c28",
".2 c #2f2c29",
".1 c #302d2a",
".U c #3c3935",
".g c #3d3a36",
".s c #3e3b36",
".V c #4a4641",
".l c #4b4742",
".N c #4c4843",
".F c #4e4a45",
".W c #4f4b46",
".7 c #5c5851",
".z c #5d5852",
"#. c #5e5953",
"#b c #67625b",
".6 c #68635c",
"#c c #69645d",
"## c #6b665e",
".k c #7c766d",
".L c #7d776e",
".G c #868076",
".f c #8b857b",
".O c #918a80",
".m c #938c82",
".T c #958e84",
".Q c #989186",
".P c #9d968b",
".8 c #aaa296",
".9 c #aca498",
".C c #bdb4a7",
".u c #bfb6a9",
".n c #cbc2b3",
".J c #cdc4b5",
"#a c #cec5b6",
"#d c #d0c7b8",
".Z c #d8cebf",
".D c #ddd3c3",
".0 c #ded4c4",
".A c #dfd5c5",
".3 c #e0d6c6",
".5 c #e2d8c8",
".X c #e4daca",
"#e c #e7ddcc",
".K c #e8ddcd",
".o c #e9dece",
".H c #eadfcf",
".v c #ebe0d0",
".e c #ece1d1",
".r c #ede2d2",
".p c #eee3d2",
".w c #efe4d3",
".M c #f0e5d4",
".x c #f1e6d5",
".I c #f2e7d6",
".B c #f3e8d7",
".y c #f5ead9",
".E c #f6ebda",
".q c #f7ecda",
".4 c #f8eddb",
".j c #faefdd",
".d c #fbf0de",
".c c #fcf1df",
".b c #fdf2e0",
".a c #fef3e1",
"Qt c #ffb760",
".# c #fff4e2",
"QtQtQtQtQtQtQtQtQtQtQtQtQtQtQtQtQtQtQtQtQtQtQtQtQtQtQtQtQtQtQtQt",
"QtQtQtQtQtQtQtQtQtQtQtQtQtQtQtQtQtQtQtQtQtQtQtQtQtQtQtQtQtQtQtQt",
"QtQt.#.#.#.#.#.#.#.#.#.#.#.#.#.#.#.#.#.#.#.#.#.#.#.#.#.#.#.#QtQt",
"QtQt.#.#.#.#.#.#.#.#.#.#.#.#.#.#.#.#.#.#.#.#.#.#.#.#.#.#.#.#QtQt",
"QtQt.#.#.#.#.#.#.#.#.#.#.#.#.#.#.#.#.#.#.#.#.#.#.#.#.#.#.#.#QtQt",
"QtQt.#.#.#.#.#.#.#.#.#.#.#.#.#.#.#.#.#.#.#.#.#.#.#.#.#.#.#.#QtQt",
"QtQt.#.#.#.#.#.#.#.#.#.#.#.#.a.a.#.#.#.#.#.#.#.#.#.#.#.#.#.#QtQt",
"QtQt.#.#.#.#.#.#.#.#.#.a.b.c.d.d.c.b.#.#.#.#.#.#.#.#.#.#.#.#QtQt",
"QtQt.#.#.#.#.#.#.#.a.b.e.f.g.h.i.i.j.a.#.#.#.#.#.#.#.#.#.#.#QtQt",
"QtQt.#.#.#.#.#.#.a.c.k.h.l.m.n.o.p.q.b.#.#.#.#.#.#.#.#.#.#.#QtQt",
"QtQt.#.#.#.#.#.a.r.s.t.u.v.r.w.x.y.j.a.#.#.#.#.#.#.#.#.#.#.#QtQt",
"QtQt.#.#.#.#.#.b.z.t.A.p.B.q.j.d.c.b.#.#.#.#.#.#.#.#.#.#.#.#QtQt",
"QtQt.#.#.#.#.a.C.h.D.p.E.d.b.a.a.#.#.#.#.#.#.#.#.#.#.#.#.#.#QtQt",
"QtQt.#.#.#.#.b.F.G.H.I.d.a.#.#.#.#.#.#.#.#.#.#.#.#.#.#.#.#.#QtQt",
"QtQt.#.#.#.#.c.h.J.r.q.b.#.#.#.#.#.#.#.#.#.#.#.#.a.b.a.#.#.#QtQt",
"QtQt.#.#.#.a.d.i.K.w.j.a.#.#.#.#.#.#.#.#.#.#.#.b.L.q.j.b.#.#QtQt",
"QtQt.#.#.#.a.j.i.n.M.j.a.#.#.#.#.#.#.#.#.#.#.a.D.i.p.y.c.#.#QtQt",
"QtQt.#.#.#.a.d.N.O.w.j.a.#.#.#.#.#.#.#.#.#.#.a.P.l.o.I.d.#.#QtQt",
"QtQt.#.#.#.#.c.Q.R.A.q.b.#.#.#.#.#.#.#.#.#.#.p.S.T.H.B.c.#.#QtQt",
"QtQt.#.#.#.#.b.q.U.V.I.d.a.#.#.#.#.#.#.#.#.a.W.g.H.p.q.b.#.#QtQt",
"QtQt.#.#.#.#.a.d.X.Y.Y.Z.d.b.a.a.a.a.a.a.0.1.2.3.v.B.d.a.#.#QtQt",
"QtQt.#.#.#.#.#.b.4.5.6.i.7.8.j.j.j.j.9#..i##.3.r.x.4.b.#.#.#QtQt",
"QtQt.#.#.#.#.#.a.c.4.x#a#b.Y.i.i.i.i.Y#c#d.v.v.x.4.c.a.#.#.#QtQt",
"QtQt.#.#.#.#.#.#.a.c.4.B.p.H.K#e#e#e#e.K.H.p.B.4.c.a.#.#.#.#QtQt",
"QtQt.#.#.#.#.#.#.#.a.b.d.q.B.x.M.M.M.M.x.B.q.d.b.a.#.#.#.#.#QtQt",
"QtQt.#.#.#.#.#.#.#.#.#.a.b.c.d.j.j.j.j.d.c.b.a.#.#.#.#.#.#.#QtQt",
"QtQt.#.#.#.#.#.#.#.#.#.#.#.#.a.a.a.a.a.a.#.#.#.#.#.#.#.#.#.#QtQt",
"QtQt.#.#.#.#.#.#.#.#.#.#.#.#.#.#.#.#.#.#.#.#.#.#.#.#.#.#.#.#QtQt",
"QtQt.#.#.#.#.#.#.#.#.#.#.#.#.#.#.#.#.#.#.#.#.#.#.#.#.#.#.#.#QtQt",
"QtQt.#.#.#.#.#.#.#.#.#.#.#.#.#.#.#.#.#.#.#.#.#.#.#.#.#.#.#.#QtQt",
"QtQtQtQtQtQtQtQtQtQtQtQtQtQtQtQtQtQtQtQtQtQtQtQtQtQtQtQtQtQtQtQt",
"QtQtQtQtQtQtQtQtQtQtQtQtQtQtQtQtQtQtQtQtQtQtQtQtQtQtQtQtQtQtQtQt"};
