/* XPM */
static char *dummy[]={
"32 32 149 2",
".f c #313436",
"af c #4b5061",
"ar c #535765",
".b c #555555",
".c c #555556",
"as c #555655",
".d c #555656",
".y c #585c66",
".g c #5a5d67",
"ag c #5f657e",
"ah c #60667e",
"ai c #61677f",
"aj c #636980",
"ak c #666b80",
"al c #696e81",
"am c #6b6f82",
"an c #6d7283",
"ao c #6f7484",
"ap c #717684",
"aq c #727785",
".x c #737885",
".w c #747885",
"#l c #747b9d",
".v c #767a86",
".u c #767b86",
".t c #787b87",
"#e c #78809f",
".s c #797c86",
".r c #797c87",
".q c #7a7d87",
".p c #7b7f88",
".o c #7c7f89",
".n c #7d8188",
".m c #7e8089",
".l c #7e8288",
"#Y c #7e85a1",
".h c #808289",
".k c #808389",
".j c #80848a",
"#4 c #8086a2",
".i c #82858a",
"#3 c #8389a3",
".e c #86847f",
".a c #87857f",
"a. c #898ea5",
".9 c #898fa5",
".R c #8e92a6",
"ae c #8e93a7",
"#Z c #9296a7",
"#S c #9397a8",
"#N c #9599a9",
"#H c #969ba9",
"#D c #9a9dab",
"#x c #9c9eab",
"#t c #9da7dd",
"#M c #9da8dd",
"#u c #9ea1ad",
"#m c #9ea2ac",
"#P c #9ea9de",
"#C c #a0aade",
"#w c #a0aadf",
"#f c #a1a3ad",
"#U c #a1abde",
"#O c #a2acde",
"#G c #a2acdf",
"#Q c #a2addf",
"#. c #a3a5ae",
".z c #a4a7ae",
"#R c #a4ade0",
"#V c #a4aee0",
"#k c #a6afe0",
"#W c #a7b1e0",
"#0 c #a8b0e0",
"#s c #aab3e1",
"#5 c #abb3e2",
"a# c #abb5e3",
"#X c #acb5e1",
"#B c #aeb7e3",
"#1 c #b0b8e4",
"aa c #b1b9e4",
"#L c #b1bae5",
"#2 c #b2bae4",
"#6 c #b2bbe4",
"#F c #b3bbe4",
"#T c #b4bce5",
"ab c #b6bde5",
"#r c #b6c0e7",
"#7 c #b7bfe5",
"#v c #bac1e6",
"#j c #bac3e7",
"#8 c #bbc3e7",
"#9 c #bdc3e8",
"#A c #bec5e9",
"ac c #bec6e9",
"#d c #c2c9e9",
"ad c #c2c9ea",
"#q c #c4caea",
"#c c #c5cbea",
".8 c #c5ccea",
"#b c #c7ccea",
"#p c #c7cdec",
".Q c #c8ceeb",
".7 c #c9d0ec",
"#K c #cacfeb",
".P c #cad0ec",
".6 c #cbd1eb",
".O c #ccd2ee",
"#z c #cdd2ef",
".N c #ced3ee",
"#y c #cfd3ee",
".5 c #cfd4ee",
".4 c #d0d5ee",
"#i c #d1d6f0",
".L c #d1d7ef",
"#J c #d2d6ef",
".M c #d2d6f0",
"#h c #d2d7ef",
".3 c #d2d8ef",
"#I c #d4d7f0",
".2 c #d4d9f1",
"#g c #d4daf1",
"#E c #d5d9f1",
".K c #d5daef",
".1 c #d6daef",
".J c #d8dcf2",
"## c #d8ddf2",
".0 c #d9dcf2",
"#a c #d9ddf2",
".I c #d9def2",
".H c #dbdff1",
".Z c #dbdff2",
".Y c #dce1f3",
"#o c #dddff2",
".G c #dde0f2",
"#n c #e0e3f3",
".X c #e0e3f5",
".W c #e0e4f3",
".F c #e1e4f5",
".E c #e1e5f4",
".V c #e4e6f5",
".U c #e4e7f5",
".D c #e4e8f5",
".C c #e7e9f6",
".B c #e7e9f7",
".T c #e7eaf7",
".S c #e8ecf7",
".A c #ebedf7",
"Qt c #ffb760",
".# c #fff4e2",
"QtQtQtQtQtQtQtQtQtQtQtQtQtQtQtQtQtQtQtQtQtQtQtQtQtQtQtQtQtQtQtQt",
"QtQtQtQtQtQtQtQtQtQtQtQtQtQtQtQtQtQtQtQtQtQtQtQtQtQtQtQtQtQtQtQt",
"QtQt.#.#.#.#.#.#.#.#.#.#.#.#.#.#.#.#.#.#.#.#.#.#.#.#.#.#.#.#QtQt",
"QtQt.#.#.#.#.#.#.#.#.#.#.#.#.#.#.#.#.#.#.#.#.#.#.#.#.#.#.#.#QtQt",
"QtQt.#.#.#.#.#.#.#.#.#.#.#.#.#.#.#.#.#.#.#.#.#.#.#.#.#.#.#.#QtQt",
"QtQt.#.#.#.#.#.#.#.#.#.#.#.#.#.#.#.#.#.#.#.#.#.#.#.#.#.#.#.#QtQt",
"QtQt.#.#.#.#.#.#.#.#.#.#.#.#.#.#.#.#.#.#.#.#.#.#.#.#.#.#.#.#QtQt",
"QtQt.#.#.#.a.b.c.d.d.d.d.d.c.b.b.b.d.d.d.d.d.d.d.b.c.e.#.#.#QtQt",
"QtQt.#.#.#.f.g.h.i.i.j.k.l.m.n.o.p.q.r.s.t.u.v.w.x.y.f.#.#.#QtQt",
"QtQt.#.#.#.f.z.A.A.B.C.D.E.F.G.H.I.J.K.L.M.N.O.P.Q.R.f.#.#.#QtQt",
"QtQt.#.#.#.f.z.S.T.U.V.W.X.Y.Z.0.1.2.3.4.5.6.7.Q.8.9.f.#.#.#QtQt",
"QtQt.#.#.#.f#..C.D.E.F.G.H###a.K.L.M.N.O.P.Q#b#c#d#e.f.#.#.#QtQt",
"QtQt.#.#.#.f#f.V.W.X.Y.Z.0.1#g#h#i.5.6.7.Q.8#d#j#k#l.f.#.#.#QtQt",
"QtQt.#.#.#.f#m#n.G#o###a.K.L.M.N.O.P.Q#p#q#r#s#t#t#l.f.#.#.#QtQt",
"QtQt.#.#.#.f#u.Y.Z.0.1#g#h#i.5.6.7#p#v#s#w#t#t#t#t#l.f.#.#.#QtQt",
"QtQt.#.#.#.f#x###a.K.L.M#y#z.P#A#B#C#t#t#t#t#t#t#t#l.f.#.#.#QtQt",
"QtQt.#.#.#.f#D#E#g#h#i.5#c#F#G#t#t#t#t#t#t#t#t#t#t#l.f.#.#.#QtQt",
"QtQt.#.#.#.f#H#I#J#y#K#L#M#t#t#t#t#t#t#t#t#t#t#t#t#l.f.#.#.#QtQt",
"QtQt.#.#.#.f#N#i.5#A#O#t#t#t#t#t#t#t#t#t#t#t#P#Q#R#e.f.#.#.#QtQt",
"QtQt.#.#.#.f#S#z#T#t#t#t#t#t#t#t#t#t#t#t#U#V#W#s#X#Y.f.#.#.#QtQt",
"QtQt.#.#.#.f#Z#F#t#t#t#t#t#t#t#t#t#t#C#V#0#X#1#2#T#3.f.#.#.#QtQt",
"QtQt.#.#.#.f#4#t#t#t#t#t#t#t#t#t#t#U#k#5#1#6#7#8#9a..f.#.#.#QtQt",
"QtQt.#.#.#.f#l#t#t#t#t#t#t#t#t#t#U#ka#aaab#8acad#cae.f.#.#.#QtQt",
"QtQt.#.#.#.fafagahahahahahahahaiajakalamanaoapaq.xar.f.#.#.#QtQt",
"QtQt.#.#.#.a.b.b.b.b.b.b.b.b.basas.c.c.c.d.d.d.b.c.b.a.#.#.#QtQt",
"QtQt.#.#.#.#.#.#.#.#.#.#.#.#.#.#.#.#.#.#.#.#.#.#.#.#.#.#.#.#QtQt",
"QtQt.#.#.#.#.#.#.#.#.#.#.#.#.#.#.#.#.#.#.#.#.#.#.#.#.#.#.#.#QtQt",
"QtQt.#.#.#.#.#.#.#.#.#.#.#.#.#.#.#.#.#.#.#.#.#.#.#.#.#.#.#.#QtQt",
"QtQt.#.#.#.#.#.#.#.#.#.#.#.#.#.#.#.#.#.#.#.#.#.#.#.#.#.#.#.#QtQt",
"QtQt.#.#.#.#.#.#.#.#.#.#.#.#.#.#.#.#.#.#.#.#.#.#.#.#.#.#.#.#QtQt",
"QtQtQtQtQtQtQtQtQtQtQtQtQtQtQtQtQtQtQtQtQtQtQtQtQtQtQtQtQtQtQtQt",
"QtQtQtQtQtQtQtQtQtQtQtQtQtQtQtQtQtQtQtQtQtQtQtQtQtQtQtQtQtQtQtQt"};
