/* XPM */
static char *dummy[]={
"32 32 179 2",
".J c #000000",
"#z c #0b0b0b",
"#R c #131313",
".R c #151515",
"#O c #191919",
"an c #1b1b1b",
"aH c #1d1d1d",
"am c #212121",
"ad c #282828",
"#n c #292724",
"at c #2a2a2a",
"aF c #2c2c2c",
"ae c #2f2f2f",
"af c #313131",
"ax c #343434",
".U c #35322d",
"aE c #353535",
"#5 c #363636",
"#0 c #3b3a3a",
".4 c #3d3d3d",
"aL c #44413d",
"#m c #494949",
".0 c #4b4842",
"ao c #4c4c4c",
".5 c #4e4842",
"a# c #4e4b45",
"aD c #4e4e4e",
".T c #4f4f4f",
"#E c #504e4a",
"#4 c #505050",
"aw c #515151",
"#U c #525252",
"#d c #54504a",
"ap c #55514b",
"#J c #555555",
"#y c #575757",
"#c c #595754",
"aG c #5d5d5d",
".C c #5e544a",
".K c #634f3d",
"#h c #676562",
"av c #696969",
"#t c #6b6966",
"ak c #6c6c6c",
".B c #71695d",
".6 c #726657",
"#b c #727272",
"aI c #777269",
"al c #777777",
"ag c #78736b",
"#l c #787878",
"#Q c #7d7d7d",
"#6 c #7e7970",
"ac c #7f7f7f",
".n c #807a71",
"#x c #818181",
"aC c #847e75",
"#T c #848484",
"aQ c #857f76",
"aP c #878178",
".N c #8a6f4f",
"ay c #8a847a",
"#D c #8b857b",
"#P c #8b8b8b",
"aO c #8c867c",
"#I c #8c8c8c",
"aM c #8d877d",
".u c #8e7a63",
"#V c #8f897f",
"#N c #948e83",
".X c #978774",
"#a c #999999",
".8 c #9b9489",
".W c #9c8b77",
".O c #9f8a73",
"#K c #9f988d",
"#3 c #9f9f9f",
".9 c #a19f9d",
".F c #a27d56",
"ab c #a2a2a2",
".v c #a5896d",
".G c #a68f74",
"#S c #a9a9a9",
".Y c #aaa397",
".3 c #adadad",
"#k c #aeaeae",
".M c #b1997f",
".E c #b28f6c",
"aj c #b2aa9e",
"aa c #b2b2b2",
".x c #b3926e",
"aq c #b3ab9f",
"#H c #b5b5b5",
".V c #b69f88",
"ah c #b6aea1",
"au c #b7b7b7",
".y c #b89976",
"#A c #b9b1a4",
"aJ c #bab2a5",
"#7 c #bbb3a6",
".H c #c0af99",
".h c #c0b09c",
".P c #c1b09a",
".L c #c3a990",
".z c #c4b29a",
"#w c #c4c4c4",
".q c #c6a989",
"#W c #c6bdaf",
"#1 c #c8c8c8",
"az c #c9c0b2",
"aR c #cac1b3",
".g c #cbbca9",
".m c #cdbfad",
"## c #cecece",
".I c #cfc6b7",
"#2 c #d0d0d0",
"ar c #d2c9ba",
".D c #d3b89d",
".r c #d3ba9e",
"#F c #d4d3d2",
".b c #d5ccbd",
"#o c #d6cdbe",
".1 c #d6d5d2",
"#L c #d7cebf",
"#Z c #d8cfbf",
".k c #d9c1a4",
"#8 c #d9d0c0",
".w c #dabb99",
"aU c #dad1c1",
"#G c #dadad9",
"aV c #dbd2c2",
"#u c #dbdad9",
".o c #dcc0a3",
"#C c #dcd3c3",
"#g c #ddd3c4",
"#X c #dfd5c6",
".p c #e1c4a5",
".A c #e1d3bf",
"aT c #e2d8c8",
"aW c #e3d9c9",
".s c #e4d5c0",
"aS c #e5dbcb",
"#e c #e6dccc",
".2 c #e6e6e6",
".j c #e9d0b2",
"aA c #e9dfcf",
".l c #ead8c0",
"#M c #eae0cf",
".S c #eaeaea",
".f c #ebd9c1",
"#B c #ebe1d0",
".c c #ecdcc6",
".7 c #ede3d2",
".i c #eed9bf",
"as c #eee4d3",
"ai c #efe5d4",
"aN c #f0e6d5",
"#9 c #f1e7d6",
"a. c #f2e8d6",
"#Y c #f3e9d7",
"#j c #f3f3f3",
".e c #f4e2c9",
".Q c #f4e9d8",
".a c #f5ead9",
"#i c #f5f5f5",
"aK c #f6ebda",
".d c #f7e7d0",
".Z c #f7ecdb",
".t c #f8eddc",
"#v c #f8f8f8",
"#p c #f9eedd",
"aB c #faefde",
"#q c #fbf0de",
"#. c #fbfbfb",
"#s c #fcf1df",
"#r c #fdf2e0",
"#f c #fef3e1",
"Qt c #ffb760",
".# c #fff4e2",
"QtQtQtQtQtQtQtQtQtQtQtQtQtQtQtQtQtQtQtQtQtQtQtQtQtQtQtQtQtQtQtQt",
"QtQtQtQtQtQtQtQtQtQtQtQtQtQtQtQtQtQtQtQtQtQtQtQtQtQtQtQtQtQtQtQt",
"QtQt.#.#.#.#.#.#.#.#.#.#.#.#.#.#.#.#.#.#.#.#.#.#.#.#.#.#.#.#QtQt",
"QtQt.#.#.#.#.#.#.#.#.#.#.#.#.#.#.#.#.#.#.#.#.#.#.#.#.#.#.#.#QtQt",
"QtQt.#.#.#.#.#.#.#.#.#.#.#.#.#.#.#.#.#.#.#.#.#.#.#.#.#.#.#.#QtQt",
"QtQt.#.#.#.#.#.#.#.#.#.#.#.#.#.#.#.#.#.#.#.#.#.#.#.#.#.#.#.#QtQt",
"QtQt.#.#.#.#.#.#.#.#.#.#.#.#.#.#.#.#.#.#.a.b.c.d.e.f.#.#.#.#QtQt",
"QtQt.#.#.#.#.#.#.#.#.#.#.#.#.#.#.#.#.#.#.g.h.i.j.k.l.#.#.#.#QtQt",
"QtQt.#.#.#.#.#.#.#.#.#.#.#.#.#.#.#.#.#.m.n.o.p.q.r.s.#.#.#.#QtQt",
"QtQt.#.#.#.#.#.#.#.#.#.#.#.#.#.#.#.#.t.u.v.w.x.y.z.A.#.#.#.#QtQt",
"QtQt.#.#.#.#.#.#.#.#.#.#.#.#.#.#.#.#.B.C.D.E.F.G.H.A.#.#.#.#QtQt",
"QtQt.#.#.#.#.#.#.#.#.#.#.#.#.#.#.#.I.J.K.L.M.N.O.P.b.#.#.#.#QtQt",
"QtQt.#.#.#.#.#.#.#.#.#.#.#.#.#.#.Q.R.S.T.U.V.W.X.Y.Z.#.#.#.#QtQt",
"QtQt.#.#.#.#.#.#.#.#.#.#.#.#.#.#.0.1.2.3.4.5.6.n.7.#.#.#.#.#QtQt",
"QtQt.#.#.#.#.#.#.#.#.#.#.#.#.#.8.9#.###a#b#c#d#e#f#f#f.#.#.#QtQt",
"QtQt.#.#.#.#.#.#.#.#.#.#.#.##g#h#i#j#k#l#m#n#o#p#q#r.#.#.#.#QtQt",
"QtQt.#.#.#.#.#.#.#.#.#.##f#s#t#u#v#w#x#y#z#A#B.Q#q#f.#.#.#.#QtQt",
"QtQt.#.#.#.#.#.#.#.#.##C#D#E#F#G#H#I#J.J#K#L#M.Z#r.#.#.#.#.#QtQt",
"QtQt.#.#.#.#.#.#.#.##N#O#P#Q#R#S#T#U#z#V#W#X#Y#s.#.#.#.#.#.#QtQt",
"QtQt.#.#.#.#.#.#.##Z#0#1#2#3#4#5#y.J#6#7#8#9#s.#.#.#.#.#.#.#QtQt",
"QtQt.#.#.#.#.#.#a.a#aaabacadaeaf.Jagah.bai#q.#.#.#.#.#.#.#.#QtQt",
"QtQt.#.#.#.#.#.#ajak#Halamanao#Rapaqaras#q.#.#.#.#.#.#.#.#.#QtQt",
"QtQt.#.#.#.#.#aratauavaeamawax.JayazaAaB.#.#.#.#.#.#.#.#.#.#QtQt",
"QtQt.#.#.#aAaC#yaDaEaFamaGaH.JaIaJ#gaK#f.#.#.#.#.#.#.#.#.#.#QtQt",
"QtQt.#.#.#.J.J.J.J.J.J.J.JaLaMaJ#oaN#s.#.#.#.#.#.#.#.#.#.#.#QtQt",
"QtQt.#.#.#.##7.YaOaPaQaQ.YaJaR#gaN#q.#.#.#.#.#.#.#.#.#.#.#.#QtQt",
"QtQt.#.#.#.#aSaT#gaU#Z#ZaVaW.7aK#s.#.#.#.#.#.#.#.#.#.#.#.#.#QtQt",
"QtQt.#.#.#.#.#.#.#.#.#.#.#.#.#.#.#.#.#.#.#.#.#.#.#.#.#.#.#.#QtQt",
"QtQt.#.#.#.#.#.#.#.#.#.#.#.#.#.#.#.#.#.#.#.#.#.#.#.#.#.#.#.#QtQt",
"QtQt.#.#.#.#.#.#.#.#.#.#.#.#.#.#.#.#.#.#.#.#.#.#.#.#.#.#.#.#QtQt",
"QtQtQtQtQtQtQtQtQtQtQtQtQtQtQtQtQtQtQtQtQtQtQtQtQtQtQtQtQtQtQtQt",
"QtQtQtQtQtQtQtQtQtQtQtQtQtQtQtQtQtQtQtQtQtQtQtQtQtQtQtQtQtQtQtQt"};
