/* XPM */
static char *dummy[]={
"32 32 137 2",
".e c #323537",
".f c #323638",
".j c #333638",
".v c #343739",
".I c #34383a",
".R c #35383a",
".1 c #35393b",
".g c #36393b",
".y c #36393c",
".z c #373a3c",
".X c #373b3c",
".A c #373b3d",
".G c #383b3c",
"#o c #383b3d",
".E c #383b3e",
".M c #383c3e",
"#B c #393d3f",
"#J c #3a3c3e",
"#M c #3a3d40",
".T c #3a3e40",
"#X c #3a3e41",
".m c #3b3e3f",
".4 c #3b3e41",
".9 c #3b3f41",
"#4 c #3c4042",
"#U c #3d4041",
"#e c #3d4143",
"#k c #3e4144",
"#0 c #3f4245",
"#q c #3f4346",
"#5 c #404346",
".F c #414343",
"#w c #414447",
"#F c #414548",
".Y c #424445",
"#K c #424546",
"#R c #434649",
"#t c #444647",
".q c #4b4d4d",
"#1 c #4d4f51",
".L c #4e4f50",
".r c #4f5151",
"#Z c #4f5152",
".u c #515251",
".U c #515353",
"#b c #545554",
"#g c #555554",
".p c #565857",
"#. c #585959",
"#G c #5b5d5d",
"#l c #5f6160",
"#E c #616261",
"#S c #626262",
"#p c #626462",
".H c #656461",
"#d c #686866",
"#x c #686967",
"#n c #6c6b67",
".6 c #6d6c69",
".K c #6f6e6a",
".3 c #6f6f6b",
"#Y c #6f6f6c",
"#6 c #71706e",
"#L c #787673",
"#Q c #787773",
"#V c #7f7d78",
".Q c #807e79",
"#A c #817e7a",
".0 c #817f79",
"#i c #817f7a",
"a# c #82807c",
"#9 c #85837d",
".i c #87847e",
"#z c #87857f",
".O c #88857f",
".P c #898680",
".l c #8a8781",
"#2 c #8b8983",
"#y c #8c8982",
".d c #8d8a83",
".N c #a19d94",
"#N c #a39f97",
"#v c #a4a098",
".C c #a5a097",
".7 c #a6a198",
"#D c #a6a199",
"#T c #a6a29a",
"#m c #a7a299",
"ac c #aca79e",
"ad c #ada79e",
".B c #ada89e",
".b c #afa99f",
"ag c #b0aba1",
".5 c #b2ada2",
".w c #b6b0a5",
"af c #b9b3a9",
"#f c #b9b4a9",
"#7 c #bab4aa",
"#I c #bcb6ab",
"#r c #c1bbb0",
"#P c #c2bcb0",
"#h c #c3bdb1",
"#a c #c5beb2",
"#j c #c6bfb3",
".2 c #c7c0b4",
".J c #c8c0b4",
".D c #c8c1b4",
".c c #cac3b6",
"ab c #ccc4b7",
"a. c #cdc5b8",
".x c #cfc7ba",
".8 c #cfc8ba",
"#W c #d2cabd",
".s c #d6cec0",
".S c #d7cfc1",
"#3 c #d9d0c3",
"#u c #ded5c6",
".W c #ded5c7",
"#H c #e0d7c8",
"aa c #eae0d1",
".o c #ebe2d2",
"ae c #ede3d3",
"#C c #f0e6d6",
".a c #f1e7d6",
".Z c #f2e7d7",
"#s c #f3e9d8",
".k c #f8eddc",
".h c #f9efdd",
".n c #faf0de",
"#8 c #fbf1df",
".t c #fcf1df",
".V c #fcf1e0",
"#c c #fdf2e0",
"#O c #fdf2e1",
"## c #fef3e1",
"Qt c #ffb760",
".# c #fff4e2",
"QtQtQtQtQtQtQtQtQtQtQtQtQtQtQtQtQtQtQtQtQtQtQtQtQtQtQtQtQtQtQtQt",
"QtQtQtQtQtQtQtQtQtQtQtQtQtQtQtQtQtQtQtQtQtQtQtQtQtQtQtQtQtQtQtQt",
"QtQt.#.#.#.#.#.#.#.#.#.#.#.#.#.#.#.#.#.#.#.#.#.#.#.#.#.#.#.#QtQt",
"QtQt.#.#.#.#.#.#.#.#.#.#.#.#.#.#.#.#.#.#.#.#.#.#.#.#.#.#.#.#QtQt",
"QtQt.#.#.#.#.#.#.#.#.#.#.#.#.#.#.#.#.#.#.#.#.#.#.#.#.#.#.#.#QtQt",
"QtQt.#.#.#.#.#.#.#.#.#.#.#.#.#.#.#.#.#.#.#.#.#.#.#.#.#.#.#.#QtQt",
"QtQt.#.#.#.#.#.#.#.#.#.#.#.a.b.b.c.#.#.#.#.#.#.#.#.#.#.#.#.#QtQt",
"QtQt.#.#.#.#.#.#.#.#.#.#.#.d.e.f.g.h.#.#.#.#.#.#.#.#.#.#.#.#QtQt",
"QtQt.#.#.#.#.#.#.#.#.#.#.#.i.f.j.j.k.#.#.#.#.#.#.#.#.#.#.#.#QtQt",
"QtQt.#.#.#.#.#.#.#.#.#.#.#.l.j.j.m.n.#.o.p.q.r.s.#.#.#.#.#.#QtQt",
"QtQt.#.#.#.#.#.#.#.#.#.#.t.u.j.v.w.#.#.x.y.z.A.B.#.#.#.#.#.#QtQt",
"QtQt.#.#.#.#.#.#.#.#.#.#.C.j.v.v.D.#.#.x.z.A.E.B.#.#.#.#.#.#QtQt",
"QtQt.#.#.#.#.#.#.#.#.#.a.F.G.H.I.J.#.#.a.K.L.M.N.#.#.#.#.#.#QtQt",
"QtQt.#.#.#.#.#.#.#.#.#.O.v.P.Q.R.J.#.#.#.#.S.T.U.V.#.#.#.#.#QtQt",
"QtQt.#.#.#.#.#.#.#.#.W.X.Y.Z.0.1.2.#.#.#.#.#.3.4.5.#.#.#.#.#QtQt",
"QtQt.#.#.#.#.#.#.#.#.6.v.7.#.Q.y.2.#.#.#.#.#.8.9#.##.#.#.#.#QtQt",
"QtQt.#.#.#.#.#.#.##a.v#b#c.#.0.z.2.#.#.#.#.#.##d#e#f.#.#.#.#QtQt",
"QtQt.#.#.#.#.#.##c#g.I#h.#.##i.A.2.#.#.#.#.#.##j#k#l.#.#.#.#QtQt",
"QtQt.#.#.#.#.#.##m.I#n.#.#.#.0#o.2.#.#.#.#.#.#.##p#q#r.#.#.#QtQt",
"QtQt.#.#.#.#.##s#t#o#u.#.#.##i.M.2.#.#.#.#.#.#.##v#w#x.#.#.#QtQt",
"QtQt.#.#.#.#.##y.R#z.#.#.#.##A#B.2.#.#.#.##C#D#E#w#F#G.#.#.#QtQt",
"QtQt.#.#.##H#I#J#K.a.#.#.#.##L#M#N.##O#P#Q#R#q#w#S#T.a.#.#.#QtQt",
"QtQt.#.#.##U.R.1#V.#.#.#.##W#M#X.9#Y#Z#k#0#1#2#3.#.#.#.#.#.#QtQt",
"QtQt.#.#.#.R.1.y#i.#.#.#.#.2.T.9#4#e#5#6#7#8.#.#.#.#.#.#.#.#QtQt",
"QtQt.#.#.#.M.g.z#9.#.#.#.#a..9#4#ea#aa.#.#.#.#.#.#.#.#.#.#.#QtQt",
"QtQt.#.#.#abacadae.#.#.#.#.#afacag.V.#.#.#.#.#.#.#.#.#.#.#.#QtQt",
"QtQt.#.#.#.#.#.#.#.#.#.#.#.#.#.#.#.#.#.#.#.#.#.#.#.#.#.#.#.#QtQt",
"QtQt.#.#.#.#.#.#.#.#.#.#.#.#.#.#.#.#.#.#.#.#.#.#.#.#.#.#.#.#QtQt",
"QtQt.#.#.#.#.#.#.#.#.#.#.#.#.#.#.#.#.#.#.#.#.#.#.#.#.#.#.#.#QtQt",
"QtQt.#.#.#.#.#.#.#.#.#.#.#.#.#.#.#.#.#.#.#.#.#.#.#.#.#.#.#.#QtQt",
"QtQtQtQtQtQtQtQtQtQtQtQtQtQtQtQtQtQtQtQtQtQtQtQtQtQtQtQtQtQtQtQt",
"QtQtQtQtQtQtQtQtQtQtQtQtQtQtQtQtQtQtQtQtQtQtQtQtQtQtQtQtQtQtQtQt"};
