/* XPM */
static char *dummy[]={
"32 32 216 2",
"bl c #000000",
"bm c #090908",
"bk c #141312",
".j c #211d1b",
".g c #241f1c",
".i c #25201e",
".m c #25201f",
".l c #25211f",
".n c #27201f",
".k c #272220",
"aT c #281d1c",
".o c #292120",
".h c #2a2523",
".q c #2f2624",
".p c #2f2625",
"#p c #301717",
"a0 c #311c1b",
"bj c #3e3b37",
".f c #44403a",
"ag c #483f3c",
"#H c #4b4341",
"bn c #4b4842",
"#d c #4c2727",
"#E c #504a45",
".1 c #542c2c",
"ab c #564340",
"aF c #59544e",
"#4 c #5a5550",
"a4 c #5b4645",
"aX c #5c3535",
"bi c #5f5751",
"#1 c #613333",
"aB c #633232",
".J c #634341",
"aP c #6a544f",
"#Q c #716c64",
"#i c #74625f",
".N c #786661",
".w c #786a67",
"ao c #797068",
".e c #7c776e",
"a8 c #7d6a63",
"#t c #7f7971",
".5 c #81766d",
"aY c #827970",
".r c #84766e",
"an c #854646",
"bh c #854747",
"ap c #8d877d",
".K c #8e6f69",
".v c #90867c",
"aC c #928c81",
"#V c #947d7a",
"#2 c #989187",
"a5 c #9d968b",
"bo c #9f988d",
"aO c #a25555",
"a9 c #a35757",
"aq c #a79a99",
"#P c #aa5959",
"aQ c #afa79b",
"ac c #b1a99d",
".M c #b3a99d",
"bs c #b5ada0",
"br c #b6aea1",
"#q c #b7afa2",
"a3 c #b97474",
".6 c #b99a95",
"#F c #b9b1a4",
"bt c #bab2a5",
"#e c #bcb4a7",
"bq c #bdb5a8",
"#U c #c0b8aa",
"#R c #c1b9ab",
"bu c #c6bdaf",
"#u c #c8a29c",
"a6 c #c8bfb1",
"aD c #cac1b3",
"a1 c #cb8181",
"#h c #cbc2b4",
".x c #ccada7",
"aa c #cd6c6c",
"#3 c #cdc4b6",
".I c #cea198",
".2 c #cec5b7",
".O c #d9b5ae",
"aR c #d9d0c0",
"ad c #dad1c1",
"#b c #ddb2a8",
"af c #ddd3c4",
".8 c #deada3",
".R c #deada4",
".9 c #deaea5",
".Q c #deb0a6",
".P c #deb2a9",
".T c #dfada4",
".S c #dfaea4",
".Z c #dfaea5",
"#J c #e0a9a0",
"#K c #e0aba2",
"#x c #e0aca2",
".V c #e0aca3",
".U c #e0ada3",
"#k c #e0ada5",
"#B c #e0afa6",
"#N c #e0b5ad",
"bp c #e0d6c7",
"#7 c #e1a7a0",
"#8 c #e1aaa1",
"#. c #e1aaa2",
".W c #e1aba2",
"#y c #e1aba3",
"#m c #e1aca3",
".H c #e1ada4",
"#w c #e1aea5",
".G c #e1afa7",
".F c #e1b0a7",
".7 c #e1b0aa",
".C c #e1b7af",
".y c #e1bab3",
".A c #e1bcb5",
"ai c #e2a9a0",
".Y c #e2a9a1",
"## c #e2aaa1",
".X c #e2aaa2",
"#X c #e2aba4",
"#v c #e2ada5",
"#j c #e2b4ae",
".E c #e2b7af",
".D c #e2b8af",
".B c #e2bab2",
".z c #e2bcb5",
"#l c #e3a8a0",
"#a c #e3a9a0",
"#z c #e3a9a1",
"#W c #e3b2ab",
"aZ c #e3d9c9",
"#L c #e4a7a0",
"#A c #e4a8a0",
"#Z c #e4a9a2",
"#6 c #e4aba3",
"a. c #e4afa8",
"#I c #e4b7b2",
"#r c #e4daca",
"aj c #e5a69f",
"#Y c #e5a79f",
"#M c #e5a7a0",
"as c #e5afa7",
"ah c #e5b2ab",
"#5 c #e5bbb4",
"#G c #e5dbcb",
"ak c #e6a59e",
"at c #e6a69e",
"#9 c #e6a69f",
"#n c #e6a9a1",
"ar c #e6b7b1",
"#f c #e6dccc",
"au c #e7a49d",
"al c #e7a59e",
"ay c #e7c5be",
".L c #e7ddcd",
"aw c #e8a39c",
"av c #e8a39d",
"ax c #e9a29c",
"aG c #e9b7b1",
"#S c #e9dfcf",
"aH c #ead0cb",
".4 c #eae0cf",
".s c #ebe1d0",
"#D c #ec7c7c",
"aK c #edd6d1",
"aI c #edd7d2",
"aJ c #edd8d3",
"a7 c #ede3d2",
"aL c #eed2cd",
"aE c #eee4d3",
"az c #efafaa",
".3 c #efe5d4",
"aM c #f3bdba",
"#s c #f3e9d7",
".0 c #f49592",
"#0 c #f49996",
"bv c #f4e9d8",
"aS c #f5ead9",
"ae c #f6ebda",
".d c #f7ecdb",
"bc c #f98787",
"#C c #f98e8c",
"a# c #f99190",
"b# c #f99797",
".t c #f9eedd",
"bd c #fa8787",
"b. c #fa9898",
".u c #faefdd",
"#g c #faefde",
"be c #fb8585",
"#T c #fbf0de",
"am c #fc8d8c",
"aU c #fc9999",
".c c #fcf1df",
"bf c #fd8686",
"#O c #fd8989",
".b c #fdf2e0",
"bg c #fe8686",
"#c c #fe8787",
"aA c #fe8888",
".a c #fef3e1",
"#o c #ff8787",
"ba c #ff8888",
"bb c #ff8989",
"aV c #ff8c8c",
"a2 c #ff9090",
"aW c #ffa3a3",
"aN c #ffaeae",
"Qt c #ffb760",
".# c #fff4e2",
"QtQtQtQtQtQtQtQtQtQtQtQtQtQtQtQtQtQtQtQtQtQtQtQtQtQtQtQtQtQtQtQt",
"QtQtQtQtQtQtQtQtQtQtQtQtQtQtQtQtQtQtQtQtQtQtQtQtQtQtQtQtQtQtQtQt",
"QtQt.#.#.#.#.#.#.#.#.#.#.#.#.#.#.#.#.#.#.#.#.#.#.#.#.#.#.#.#QtQt",
"QtQt.#.#.#.#.#.#.#.#.#.#.#.#.#.#.#.#.#.#.#.#.#.#.#.#.#.#.#.#QtQt",
"QtQt.#.#.#.#.#.#.#.#.#.#.#.#.#.#.#.#.#.#.#.#.#.#.#.#.#.#.#.#QtQt",
"QtQt.#.#.#.#.#.#.#.#.#.#.#.#.#.#.#.#.#.#.#.#.#.#.#.#.#.#.#.#QtQt",
"QtQt.#.#.#.#.#.#.#.#.#.a.b.c.c.c.c.c.c.c.c.c.c.c.b.#.#.#.#.#QtQt",
"QtQt.#.#.#.#.#.#.#.d.e.f.g.h.i.j.k.l.m.n.o.p.q.r.s.t.a.#.#.#QtQt",
"QtQt.#.#.#.#.#.c.u.v.w.x.y.z.A.B.C.D.E.F.G.H.I.J.K.L.t.#.#.#QtQt",
"QtQt.#.#.#.#.#.b.M.N.O.P.Q.R.S.T.U.V.W.W.X.Y.Z.0.1.2.3.#.#.#QtQt",
"QtQt.#.#.#.#.#.4.5.6.7.8.9.S.T.V.V.W#.##.Y#a#b#c#d#e#f.#.#.#QtQt",
"QtQt.#.#.#.##g#h#i#j#k.R.T.T.V.V.W#.##.Y#l#m#n#o#p#q#r.#.#.#QtQt",
"QtQt.#.#.#.##s#t#u#v#w#x.V#y.W.X.Y#z#l#A#A#B#C#D#E#F#G.#.#.#QtQt",
"QtQt.#.#.#.#.4#H#I#.#J#K.W#.##.Y#a#l#L#A#M#N#O#P#Q#R#S.#.#.#QtQt",
"QtQt.#.#.##T#U#V#W#X.V.W#.##.Y#l#l#A#A#Y#Z#0#o#1#2#3.3.#.#.#QtQt",
"QtQt.#.#.##g#4#5#6#7#8.X.Y#z#l#A#A#M#Y#9a.a#aaabacadae.#.#.#QtQt",
"QtQt.#.#.#afagah#Zai.Y#a#l#L#A#Maj#9akal#5amanao#e#G#T.#.#.#QtQt",
"QtQt.#.#.#apaqaras#A#YajatakauauavawaxayazaAaBaCaDaE.b.#.#.#QtQt",
"QtQt.#.#.#aFaGaHaIaJaKaKaKaKaKaKaKaKaLaMaNaOaPaQaRaS.a.#.#.#QtQt",
"QtQt.#.#.#aTaU#o#o#o#o#o#o#o#o#o#o#o#oaVaWaXaY#FaZ#g.#.#.#.#QtQt",
"QtQt.#.#.#a0a1a2#o#o#o#o#o#o#o#o#o#o#o#oa3a4a5a6a7.b.#.#.#.#QtQt",
"QtQt.#.#.#a8a9b.b##obabbbbbcbcbdbcbebfbgbhbiacadae.a.#.#.#.#QtQt",
"QtQt.#.#.##3bjbkblblblblblblblblblblblbmbnbo#R.L#T.#.#.#.#.#QtQt",
"QtQt.#.#.#aSbpaDbq#qbrbrbsbsbsbsbsbsbr#qbtbuafbv.a.#.#.#.#.#QtQt",
"QtQt.#.#.#.baea7.L#raZaZaZaZaZaZaZaZaZ#r#f.saS.b.#.#.#.#.#.#QtQt",
"QtQt.#.#.#.#.a.b.c.c.c.c#T#T#T#T#T#T#T.c.c.b.a.#.#.#.#.#.#.#QtQt",
"QtQt.#.#.#.#.#.#.#.#.#.#.#.#.#.#.#.#.#.#.#.#.#.#.#.#.#.#.#.#QtQt",
"QtQt.#.#.#.#.#.#.#.#.#.#.#.#.#.#.#.#.#.#.#.#.#.#.#.#.#.#.#.#QtQt",
"QtQt.#.#.#.#.#.#.#.#.#.#.#.#.#.#.#.#.#.#.#.#.#.#.#.#.#.#.#.#QtQt",
"QtQt.#.#.#.#.#.#.#.#.#.#.#.#.#.#.#.#.#.#.#.#.#.#.#.#.#.#.#.#QtQt",
"QtQtQtQtQtQtQtQtQtQtQtQtQtQtQtQtQtQtQtQtQtQtQtQtQtQtQtQtQtQtQtQt",
"QtQtQtQtQtQtQtQtQtQtQtQtQtQtQtQtQtQtQtQtQtQtQtQtQtQtQtQtQtQtQtQt"};
