/* XPM */
static char *dummy[]={
"32 32 225 2",
".r c #000000",
".z c #050505",
".H c #080808",
"bo c #0c0c0c",
".3 c #0d0d0d",
".S c #0e0e0e",
"bd c #131313",
"#7 c #141414",
"bg c #151514",
"ai c #151515",
"an c #161615",
"a9 c #181817",
"aA c #191918",
"#h c #1b1b1b",
"aO c #1d1d1c",
"ac c #201f1f",
"aZ c #20201f",
"#L c #202020",
"aw c #222222",
"a5 c #2a2a2a",
"#t c #2b2b2b",
"ad c #2e2c29",
"#X c #303030",
"#w c #313131",
".s c #343330",
"#E c #393939",
"aJ c #3a3a3a",
"#H c #3b3b3b",
".n c #3f3c38",
".G c #404040",
".1 c #414141",
".Q c #424242",
"#I c #454545",
".p c #484540",
".c c #494641",
".x c #494949",
".M c #4a4a4a",
".D c #4c4c4c",
".e c #4f4c46",
".W c #4f4f4f",
"#S c #505050",
"bC c #532a1f",
".b c #54504a",
".h c #58544e",
"bs c #5a3a2e",
"bq c #5b473e",
"#f c #5c5c5c",
"bz c #65392c",
".4 c #665a55",
"ag c #672c1e",
"bx c #67534a",
"bj c #6b4538",
"at c #6c2c1b",
"aF c #6e2918",
"ar c #724134",
"b# c #734538",
"aU c #7a2e1b",
"a3 c #7b2e1c",
"a1 c #7b4334",
".w c #7b766d",
"aD c #7e4536",
"ae c #7e5144",
"am c #868686",
"#5 c #874c3a",
"bl c #8b4532",
"aN c #8b8b8b",
"az c #8c8c8c",
"ab c #8d8d8d",
"a8 c #8e8e8e",
"#2 c #908a80",
"ao c #918b81",
"bp c #928c81",
"bf c #929292",
".5 c #934835",
"a0 c #958f84",
"aP c #969085",
"#1 c #969696",
"bb c #973923",
"#Q c #977668",
"aB c #979086",
"bD c #988b80",
"b. c #999288",
"bh c #9b9489",
"#B c #9e533f",
"#m c #a06b5a",
"br c #a2341b",
"be c #a2a19e",
"by c #a5543e",
"aX c #a5a5a5",
".6 c #aa5e4b",
"#k c #ac5947",
"#s c #acacac",
"ap c #b0a89c",
"#0 c #b0b0b0",
".7 c #b2907f",
"a6 c #b3b3b3",
"av c #b6aea1",
"#8 c #b8b7b5",
"#Z c #b8b8b8",
"a# c #b9b9b9",
"aC c #bab2a5",
"aI c #bbb3a6",
"#M c #bc816f",
"bc c #bcb4a7",
"aq c #bdb5a8",
"al c #bdbdbd",
"aG c #beb6a8",
"#P c #bf563b",
"a4 c #bfb7a9",
"#K c #bfbfbf",
"bm c #c0b8aa",
"#Y c #c0c0c0",
"au c #c1b9ab",
"aY c #c1c1c1",
".A c #c2bdb4",
"aK c #c2c1c0",
"#J c #c2c2c2",
"#l c #c35740",
"aT c #c35e46",
"bt c #c3bbad",
".T c #c3beb5",
"a. c #c3c3c3",
"ah c #c4bcae",
"bw c #c5bdaf",
"aV c #c5c5c5",
"bk c #c64c2f",
"#A c #c6563a",
".I c #c6c1b8",
"#T c #c6c6c6",
"#x c #c77c67",
"bv c #c7beb0",
"aj c #c7c7c7",
"bn c #c8bfb1",
"aL c #c8c8c8",
".E c #cacaca",
".N c #cbcbcb",
"#i c #cc8674",
"#6 c #ccc3b5",
".q c #cdc4b6",
"a7 c #cdcdcd",
"#3 c #ce6c51",
"#C c #cec0b1",
"bE c #cec5b7",
".X c #cecece",
"aE c #cf6a51",
"#a c #cfcfcf",
".O c #d0d0d0",
".8 c #d1c4b5",
"#F c #d2d2d2",
"a2 c #d34a2a",
"aM c #d3d3d3",
"#n c #d4c6b7",
".g c #d4cbbc",
".a c #d5ccbd",
".Y c #d5d5d5",
"#b c #d6d6d6",
".t c #d7cebf",
"aa c #d7d7d7",
"#v c #d9d9d9",
"aQ c #dad1c1",
"## c #dad4c9",
"ay c #dadada",
"bi c #dbd2c2",
"aW c #dbdbdb",
"ba c #dc502f",
"bu c #ddd3c4",
"#p c #ddd7cc",
"#q c #dddddd",
"#N c #de826b",
"#j c #df694c",
"#R c #dfd5c6",
".V c #e0d8cb",
"ax c #e0e0e0",
".l c #e1d7c7",
".C c #e1d9ca",
".F c #e1e1e1",
".m c #e2d8c8",
"#u c #e2e2e2",
"#y c #e3846d",
".f c #e3d9c9",
"#4 c #e4ada0",
".i c #e4daca",
".Z c #e4e4e4",
"af c #e59f8d",
".9 c #e5dbcb",
"#D c #e5ddd0",
"#U c #e5e5e5",
"as c #e69480",
"#c c #e6e6e6",
".L c #e7decf",
".P c #e7e7e7",
"#9 c #e8e8e8",
".J c #eae0cf",
"#g c #eaeaea",
".U c #ebe1d0",
"#z c #ecccc4",
".u c #ece2d1",
"#V c #ececec",
"#d c #ededed",
".y c #eeeeee",
"#O c #efc7bc",
".0 c #efefef",
"aH c #f0e6d5",
"#e c #f0f0f0",
"aR c #f1e7d6",
"#r c #f1f1f1",
".o c #f2e8d6",
"#o c #f3e9d7",
"#G c #f3f3f3",
"bB c #f4e9d8",
"bA c #f5ead9",
"ak c #f5f5f5",
".j c #f6ebda",
"aS c #f7ecdb",
".2 c #f7f7f7",
".B c #f8eddc",
"#. c #f9eedd",
".R c #f9f9f9",
".K c #faefde",
"#W c #fafafa",
".v c #fcf1df",
".k c #fdf2e0",
".d c #fef3e1",
"Qt c #ffb760",
".# c #fff4e2",
"QtQtQtQtQtQtQtQtQtQtQtQtQtQtQtQtQtQtQtQtQtQtQtQtQtQtQtQtQtQtQtQt",
"QtQtQtQtQtQtQtQtQtQtQtQtQtQtQtQtQtQtQtQtQtQtQtQtQtQtQtQtQtQtQtQt",
"QtQt.#.#.#.#.#.#.#.#.#.#.#.#.#.#.#.#.#.#.#.#.#.#.#.#.#.#.#.#QtQt",
"QtQt.#.#.#.#.#.#.#.#.#.#.#.#.#.#.#.#.#.#.#.#.#.#.#.#.#.#.#.#QtQt",
"QtQt.#.#.#.#.#.#.#.#.#.#.#.#.#.#.#.#.#.#.#.#.#.#.#.#.#.#.#.#QtQt",
"QtQt.#.#.#.#.#.#.#.#.#.a.b.c.a.#.#.#.#.#.#.#.#.#.#.#.#.#.#.#QtQt",
"QtQt.#.#.#.#.#.#.#.#.d.e.f.g.h.i.j.d.#.#.#.#.#.#.#.#.#.#.#.#QtQt",
"QtQt.#.#.#.#.#.#.#.#.k.c.l.m.n.l.o.k.#.#.#.#.#.#.#.#.#.#.#.#QtQt",
"QtQt.#.#.#.#.#.#.#.#.k.p.q.r.s.t.u.v.#.#.#.#.#.#.#.#.#.#.#.#QtQt",
"QtQt.#.#.#.#.#.#.#.#.k.w.x.y.z.A.m.B.d.#.#.#.#.#.#.#.#.#.#.#QtQt",
"QtQt.#.#.#.#.#.#.#.#.C.D.E.F.G.H.I.J.K.d.#.#.#.#.#.#.#.#.#.#QtQt",
"QtQt.#.#.#.#.#.#.#.L.M.N.O.P.Q.R.S.T.U.B.v.v.k.d.#.#.#.#.#.#QtQt",
"QtQt.#.#.#.#.#.#.V.W.X.Y.Z.0.1.2.E.3.4.5.6.7.8.9#..k.#.#.#.#QtQt",
"QtQt.#.#.#.#.###.W#a#b#c#d#e#f#a.N#g#h#i#j#k#l#m#n#o.v.#.#.#QtQt",
"QtQt.#.#.#.##p.G.Y#q.Z.0#r#s#t#s#d#u#v#w#x#y#z#A#B#C.o.#.#.#QtQt",
"QtQt.#.#.##D#E#F.F.Z#g#G.2#H.2#I.P.O#J#K#L#M#N#O#P#Q#R.#.#.#QtQt",
"QtQt.#.#.##S#T.Y#U#V#r.R#W#s#X#Y#F#Z#0#J#Y#1#2#3#4#5#6.#.#.#QtQt",
"QtQt.#.#.##7#8#9#g#G.R#W.2#e#9.Ya.a#aaab.Macadaeafagah.#.#.#QtQt",
"QtQt.#.#.#.maiaj#r#dakak.0#c#Falaj#bamanaoapaqarasatau.#.#.#QtQt",
"QtQt.#.#.#.#avaw#T#V#u#cax.Oal.NayazaAaBaC.g.laDaEaFaG.#.#.#QtQt",
"QtQt.#.#.#.#aHaIaJaK.P.X.E#ZaLaMaNaOaPaIaQaRaSaDaTaUaq.#.#.#QtQt",
"QtQt.#.#.#.#.vaRaI.GaVaWaXaY.OaNaZa0aIaQ.o.k.va1a2a3aq.#.#.#QtQt",
"QtQt.#.#.#.#.#.vaRa4a5a6aya7a8a9b.aIaQ.o.v.#.vb#babbaq.#.#.#QtQt",
"QtQt.#.#.#.#.#.#.vaRbcbdbebfbgbhaIbi.o.v.#.#.kbjbkblbm.#.#.#QtQt",
"QtQt.#.#.#.#.#.#.#.vaRbnbo.HbpaIbi.o.k.#.#.#.kbqbrbsbt.#.#.#QtQt",
"QtQt.#.#.#.#.#.#.#.#.v.obubvbwbi.o.k.#.#.#.#.kbxbybzbv.#.#.#QtQt",
"QtQt.#.#.#.#.#.#.#.#.#.kbA.U.JbB.v.#.#.#.#.#.kaubCbDbE.#.#.#QtQt",
"QtQt.#.#.#.#.#.#.#.#.#.#.#.#.#.#.#.#.#.#.#.#.#.#.#.#.#.#.#.#QtQt",
"QtQt.#.#.#.#.#.#.#.#.#.#.#.#.#.#.#.#.#.#.#.#.#.#.#.#.#.#.#.#QtQt",
"QtQt.#.#.#.#.#.#.#.#.#.#.#.#.#.#.#.#.#.#.#.#.#.#.#.#.#.#.#.#QtQt",
"QtQtQtQtQtQtQtQtQtQtQtQtQtQtQtQtQtQtQtQtQtQtQtQtQtQtQtQtQtQtQtQt",
"QtQtQtQtQtQtQtQtQtQtQtQtQtQtQtQtQtQtQtQtQtQtQtQtQtQtQtQtQtQtQtQt"};
