/* XPM */
static char *dummy[]={
"32 32 6 1",
"a c #000000",
"b c #303030",
"c c #606060",
"d c #c0c0c0",
". c #ffb760",
"# c #fff4e2",
"................................",
"................................",
"..############################..",
"..############################..",
"..############################..",
"..############################..",
"..############################..",
"..#####aaaaaaaaaaaaaaaaaa#####..",
"..#####abccccccccccccccba#####..",
"..#####acddddddddddddddca#####..",
"..#####acddddddddddddddca#####..",
"..#####acddddddddddddddca#####..",
"..#####acddddddddddddddca#####..",
"..#####acddddddddddddddca#####..",
"..#####acddddddddddddddca#####..",
"..#####acddddddddddddddca#####..",
"..#####acddddddddddddddca#####..",
"..#####acddddddddddddddca#####..",
"..#####acddddddddddddddca#####..",
"..#####acddddddddddddddca#####..",
"..#####acddddddddddddddca#####..",
"..#####acddddddddddddddca#####..",
"..#####acddddddddddddddca#####..",
"..#####abccccccccccccccba#####..",
"..#####aaaaaaaaaaaaaaaaaa#####..",
"..############################..",
"..############################..",
"..############################..",
"..############################..",
"..############################..",
"................................",
"................................"};
