/* XPM */
static char *dummy[]={
"32 32 33 1",
"C c #313436",
"A c #323537",
"z c #323538",
"x c #333638",
"v c #343739",
"t c #35383a",
"s c #36393b",
"r c #373b3d",
"p c #383c3e",
"o c #3a3d40",
"m c #3b3f41",
"k c #3d4043",
"i c #3f4245",
"h c #404447",
"f c #424649",
"e c #44484b",
"b c #464b4e",
"c c #494d50",
"l c #9f9b93",
"j c #9f9c93",
"n c #a09b93",
"q c #a09c93",
"d c #a09c94",
"a c #a09d95",
"g c #a09d96",
"u c #a19c93",
"w c #a19c94",
"y c #a29d94",
"B c #a39e95",
"D c #a49f96",
"E c #a5a096",
". c #ffb760",
"# c #fff4e2",
"................................",
"................................",
"..############################..",
"..############################..",
"..############################..",
"..######################abc###..",
"..#####################debc###..",
"..####################dfebg###..",
"..###################dhfea####..",
"..##################dihfa#####..",
"..#################jkihd######..",
"..################lmkid#######..",
"..###############nomkd########..",
"..##############lpomd#########..",
"..#############qrpoj##########..",
"..############qsrpl###########..",
"..###########qtsrn############..",
"..##########uvtsl#############..",
"..#########wxvtq##############..",
"..########yzxvq###############..",
"..#######yAzxq################..",
"..######BCAzu#################..",
"..#####BCCAw##################..",
"..####DCCCy###################..",
"..###ECCCy####################..",
"..###CCCB#####################..",
"..###CCB######################..",
"..############################..",
"..############################..",
"..############################..",
"................................",
"................................"};
