/* XPM */
static char *dummy[]={
"32 32 216 2",
".j c #313436",
"#d c #333638",
"#O c #333639",
".Z c #343739",
"aO c #34373a",
"bb c #34383b",
"aF c #35373a",
".k c #35383a",
".p c #35383b",
".F c #36383b",
".u c #36393c",
"#v c #393c3f",
"bl c #393c40",
"bq c #3a3d40",
"#f c #3b3d40",
".q c #3b3d41",
".i c #3b3e40",
"ba c #404247",
".G c #404346",
".t c #424448",
"at c #44464a",
"ah c #44474b",
"#7 c #45484b",
"bm c #484c55",
"bp c #4a4d56",
"#5 c #4a4f5d",
"aD c #4d525e",
".o c #525558",
".l c #545759",
"av c #585b62",
"#u c #5b606f",
"a6 c #5b6076",
"#Q c #5c5f64",
"aY c #5c616f",
"aP c #606470",
"bu c #616366",
"bn c #616574",
"bo c #616674",
"bv c #626366",
".f c #646468",
".e c #646568",
"bc c #646b83",
"ag c #666d88",
"b# c #686c7b",
"as c #686e89",
"aZ c #6a7085",
".W c #6b6f7c",
"#g c #707276",
"a5 c #717687",
"#c c #717788",
".n c #72757a",
"bi c #747989",
".m c #75777b",
"#6 c #797876",
"#P c #7a7977",
"au c #7a7978",
".E c #7d818c",
".J c #7e8082",
"bt c #838281",
".d c #848382",
"ai c #868993",
"#8 c #898c95",
".0 c #8d8f91",
".v c #8e9092",
"a7 c #919aca",
"bd c #929ac4",
"br c #98958f",
".r c #989590",
"bk c #99958f",
".h c #999691",
"#N c #99a3d5",
"#4 c #9da7dd",
"ap c #9da8dd",
"#3 c #9ea9dd",
"aq c #9fa9dd",
"ao c #9fa9de",
"ar c #a0aade",
"az c #a1abde",
"aR c #a3adde",
"#2 c #a3addf",
"af c #a4aedf",
"aA c #a4aee0",
"aB c #a6afe0",
"aC c #a6b0e0",
"#M c #a7b0e0",
"ay c #a7b1e0",
"aN c #a8b1da",
"be c #a8b1de",
"aJ c #a8b1e0",
"a0 c #a8b2e1",
"bs c #a9a49c",
"bh c #a9afcc",
"aS c #a9b3e1",
".c c #aaa49c",
".X c #aaa59d",
"aK c #aab3e1",
".I c #aba69d",
"aL c #abb5e2",
"bj c #aca7a0",
"an c #acb5e2",
".H c #ada8a0",
".s c #ada8a1",
"#1 c #adb6e2",
"aM c #aeb6e3",
"aI c #aeb7e2",
"aT c #aeb7e3",
"a1 c #afb7e3",
"ae c #afb8e3",
"b. c #b0b6d4",
"aU c #b1b9e3",
"a8 c #b1bae4",
"#L c #b2bbe4",
"aE c #b3aea3",
"aV c #b3bbe4",
"#w c #b4aea3",
"aX c #b4bce3",
"aW c #b4bce5",
"a2 c #b5bde5",
"bf c #b7bee5",
"#t c #b7bfe5",
"#0 c #b7bfe6",
"a3 c #b8bfe6",
"#K c #b8c0e6",
"ax c #b9c1e6",
"a4 c #bac1e6",
"bg c #bbc2e6",
"am c #bbc2e7",
".V c #bcc0d8",
"#s c #bcc3e7",
"#J c #bcc3e8",
"#Z c #bcc4e8",
"a9 c #bdc5e8",
"aQ c #bec5e8",
"aH c #bec6e8",
".D c #bfc3d3",
"#r c #bfc6e9",
"#I c #c0c7e9",
"ad c #c1c8e9",
"aw c #c2c8e9",
"aG c #c2c9e3",
"#b c #c2c9e9",
"#q c #c3c9e9",
"#H c #c3cae9",
"#Y c #c4cbea",
"al c #c5cceb",
"#a c #c6cdeb",
".Y c #c7c0b3",
"#p c #c7cdeb",
"#X c #c8ceeb",
"ak c #cacfec",
"## c #cad0ec",
".b c #cbc4b7",
"#G c #cbd1ed",
"ac c #ccd1ed",
"aj c #cdd2ed",
"#. c #ced3ed",
"#o c #ced4ed",
"#F c #ced4ee",
"#W c #cfd4ee",
"ab c #d0d5ee",
".U c #d0d5ef",
".9 c #d1d6ef",
"#E c #d2d8ef",
"#n c #d3d7ef",
"aa c #d4d9ef",
".T c #d4d9f0",
".w c #d5d7db",
".8 c #d5daf0",
"#m c #d6daf0",
"#D c #d6dbf0",
"#V c #d7dbf1",
"a# c #d8dcf1",
".S c #d8ddf1",
".7 c #d9ddf1",
"#l c #d9ddf2",
"#C c #dadef2",
"a. c #dadff2",
".C c #dbdff0",
"#U c #dbdff2",
".R c #dce0f2",
".6 c #dde0f2",
"#B c #dde1f2",
"#k c #dee1f2",
"#T c #dfe2f3",
"#9 c #dfe3f3",
".Q c #e0e3f3",
".K c #e1e1e5",
".5 c #e1e3f4",
"#j c #e1e4f4",
"#A c #e1e5f4",
"#S c #e2e5f5",
"#x c #e4e6ef",
".B c #e4e6f5",
".P c #e4e7f5",
".4 c #e4e8f6",
"#z c #e6e7f6",
"#R c #e6e8f6",
".A c #e7e9f6",
".O c #e8eaf6",
"#i c #e8eaf7",
"#y c #e9ecf7",
".z c #ebedf7",
".N c #ebeef8",
".3 c #eceef8",
"#e c #ede3d3",
"#h c #edeef8",
".x c #eeeff6",
".y c #eef0f9",
".M c #eff0f9",
".2 c #f0f1f9",
".L c #f3f4fa",
".a c #f4e9d9",
".1 c #f4f4fa",
".g c #f7ecdb",
"Qt c #ffb760",
".# c #fff4e2",
"QtQtQtQtQtQtQtQtQtQtQtQtQtQtQtQtQtQtQtQtQtQtQtQtQtQtQtQtQtQtQtQt",
"QtQtQtQtQtQtQtQtQtQtQtQtQtQtQtQtQtQtQtQtQtQtQtQtQtQtQtQtQtQtQtQt",
"QtQt.#.#.#.#.#.#.#.#.#.#.#.#.#.#.#.#.#.#.#.#.#.#.#.#.#.#.#.#QtQt",
"QtQt.#.#.#.#.#.#.#.#.#.#.#.#.#.#.#.#.#.#.#.#.#.#.#.#.#.#.#.#QtQt",
"QtQt.#.#.#.#.#.#.#.#.#.#.#.#.#.#.#.#.#.#.#.#.#.#.#.#.#.#.#.#QtQt",
"QtQt.#.#.#.#.#.#.#.#.#.#.#.#.#.#.#.#.#.#.#.#.#.#.#.#.#.#.#.#QtQt",
"QtQt.#.#.#.#.#.#.#.#.#.#.#.#.#.#.#.#.#.#.#.#.#.#.#.#.#.#.#.#QtQt",
"QtQt.#.#.#.#.#.#.#.#.#.a.b.c.d.e.f.d.c.b.a.#.#.#.#.#.#.#.#.#QtQt",
"QtQt.#.#.#.#.#.#.#.g.h.i.j.k.l.m.n.o.p.j.q.r.g.#.#.#.#.#.#.#QtQt",
"QtQt.#.#.#.#.#.#.s.t.u.v.w.x.y.z.A.B.C.D.E.F.G.H.#.#.#.#.#.#QtQt",
"QtQt.#.#.#.#.#.I.j.J.K.L.M.N.O.P.Q.R.S.T.U.V.W.j.X.#.#.#.#.#QtQt",
"QtQt.#.#.#.#.Y.Z.0.1.2.3.O.4.5.6.7.8.9#.###a#b#c#d.Y.#.#.#.#QtQt",
"QtQt.#.#.##e#f#g.M#h#i.4#j#k#l#m#n#o###p#q#r#s#t#u#v#e.#.#.#QtQt",
"QtQt.#.#.##w.k#x#y#z#A#B#C#D#E#F#G#p#H#I#J#K#L#M#N#O#w.#.#.#QtQt",
"QtQt.#.#.##P#Q#R#S#T#U#V#n#W#G#X#Y#I#Z#0#1#2#3#4#4#5#6.#.#.#QtQt",
"QtQt.#.#.##7#8#9a.a#aaabac#X#Yad#Zaeaf#3#4#4#4#4#4agah.#.#.#QtQt",
"QtQt.#.#.##7ai.Saaabajakaladamanao#4#4#4#4apaqararasat.#.#.#QtQt",
"QtQt.#.#.#auav.9#.##alawaxay#3#4#4#4aqaz#2aAaBaCayaD#6.#.#.#QtQt",
"QtQt.#.#.#aEaFaG#p#qaHaI#3#4#4#4ar#2aBaJaKaL#1aMaNaO#w.#.#.#QtQt",
"QtQt.#.#.##e#vaPaQ#0#2#4#4#4aqaRaBaSanaTaUaVaWaXaY#v#e.#.#.#QtQt",
"QtQt.#.#.#.#.Y#daZ#3#4#4#4araAa0aLa1#La2a3a4ama5#d.Y.#.#.#.#QtQt",
"QtQt.#.#.#.#.#.I.ja6a7#4azaBaSaMa8a2#K#sa9b.b#.j.X.#.#.#.#.#QtQt",
"QtQt.#.#.#.#.#.#.HbabbbcbdbeaM#Lbfambgbhbi.p.Gbj.#.#.#.#.#.#QtQt",
"QtQt.#.#.#.#.#.#.#.gbkbl.j.ZbmbnbobpaF.jbqbr.g.#.#.#.#.#.#.#QtQt",
"QtQt.#.#.#.#.#.#.#.#.#.a.bbsbtbubvbtbs.b.a.#.#.#.#.#.#.#.#.#QtQt",
"QtQt.#.#.#.#.#.#.#.#.#.#.#.#.#.#.#.#.#.#.#.#.#.#.#.#.#.#.#.#QtQt",
"QtQt.#.#.#.#.#.#.#.#.#.#.#.#.#.#.#.#.#.#.#.#.#.#.#.#.#.#.#.#QtQt",
"QtQt.#.#.#.#.#.#.#.#.#.#.#.#.#.#.#.#.#.#.#.#.#.#.#.#.#.#.#.#QtQt",
"QtQt.#.#.#.#.#.#.#.#.#.#.#.#.#.#.#.#.#.#.#.#.#.#.#.#.#.#.#.#QtQt",
"QtQt.#.#.#.#.#.#.#.#.#.#.#.#.#.#.#.#.#.#.#.#.#.#.#.#.#.#.#.#QtQt",
"QtQtQtQtQtQtQtQtQtQtQtQtQtQtQtQtQtQtQtQtQtQtQtQtQtQtQtQtQtQtQtQt",
"QtQtQtQtQtQtQtQtQtQtQtQtQtQtQtQtQtQtQtQtQtQtQtQtQtQtQtQtQtQtQtQt"};
