/* XPM */
static char *dummy[]={
"32 32 118 2",
".b c #000000",
".Q c #242424",
".m c #3b3b3b",
".8 c #434343",
"#R c #5b5956",
".v c #611e12",
"#t c #6e6e6e",
"#L c #6f6b67",
"#W c #78736a",
"#. c #797979",
".N c #7e665c",
".4 c #7f695e",
"#U c #7f7970",
"#d c #807764",
"#m c #817862",
".F c #837370",
"#r c #858173",
".p c #862f21",
"#s c #868077",
"#g c #868479",
".D c #882f21",
"#S c #8b847a",
".f c #8d6d68",
".o c #913120",
"#C c #958975",
".w c #983525",
"#x c #9b8367",
"#H c #9b8c73",
"#N c #9b8e77",
"#E c #9e9182",
".V c #9e9493",
"#M c #9e9d9c",
"#u c #a07e57",
".C c #a23521",
".K c #a28e8a",
"#h c #a9a296",
".g c #aa5b4f",
".W c #aaa397",
".n c #ab928d",
".1 c #ac8c3a",
"#O c #b1a99d",
".B c #b3958f",
"#y c #b39e86",
"#I c #b3ab9f",
"#F c #b4aca3",
".G c #b6aea1",
".y c #b7afa2",
"#z c #b89f83",
".l c #b8b0a3",
".T c #b8b8b8",
"#v c #b99569",
".h c #ba6256",
".5 c #bab2a5",
"#D c #bbb3a6",
".a c #bcb4a7",
".J c #bda6a1",
"#w c #bda88f",
".O c #bdb5a8",
".9 c #beab88",
".r c #c1b9ab",
".e c #c4b6b0",
".u c #c6afa9",
"#b c #c7b492",
".L c #ca7c73",
"#i c #cac1b3",
"#A c #cbb090",
".Z c #ccbda2",
".S c #cccccc",
"## c #cdc4b6",
".X c #cec5b7",
".q c #cf523e",
"#P c #cfc6b7",
".i c #d2c9ba",
"#J c #d3cabb",
"#k c #d4c49f",
"#X c #d4cbbc",
"#B c #d4cdb7",
".3 c #d6d6d6",
"#Y c #d7cebf",
".0 c #d8a944",
"#p c #d8cfbf",
"#G c #dad4c1",
".E c #db7e70",
"#f c #dbc090",
".c c #dbd2c2",
"#n c #dfd5c6",
"#e c #e0d6c7",
".U c #e0d7d6",
".6 c #e1d7c7",
".R c #e1e1e1",
".x c #e39a8e",
"#q c #e3d2b9",
".H c #e3d9c9",
".M c #e4a49b",
".z c #e4daca",
".I c #e4ddda",
".P c #e7ddcd",
".s c #e9dfcf",
".2 c #eace79",
"#T c #eae0cf",
"#Q c #ebe1d0",
"#V c #ece2d1",
"#Z c #ede3d2",
"#j c #eee4d3",
"#c c #efdda2",
"#a c #efe5d4",
".Y c #f0e6d5",
"#K c #f1e7d6",
".j c #f2e8d6",
"#l c #f7efd6",
"#o c #f8eddc",
".7 c #f9eedd",
".A c #fbf0de",
".t c #fcf1df",
".d c #fdf2e0",
".k c #fef3e1",
"Qt c #ffb760",
".# c #fff4e2",
"QtQtQtQtQtQtQtQtQtQtQtQtQtQtQtQtQtQtQtQtQtQtQtQtQtQtQtQtQtQtQtQt",
"QtQtQtQtQtQtQtQtQtQtQtQtQtQtQtQtQtQtQtQtQtQtQtQtQtQtQtQtQtQtQtQt",
"QtQt.#.#.#.#.#.#.#.#.#.#.#.#.#.#.#.#.#.#.#.#.#.#.#.#.#.#.#.#QtQt",
"QtQt.#.#.#.#.#.#.#.#.#.#.#.#.#.#.#.#.#.#.#.#.#.#.#.#.#.#.#.#QtQt",
"QtQt.#.#.#.#.#.#.#.#.#.#.#.#.#.#.#.#.#.#.#.#.#.#.#.#.#.#.#.#QtQt",
"QtQt.#.#.#.#.#.#.#.#.#.#.#.#.#.#.a.b.b.b.b.c.#.#.#.#.#.#.#.#QtQt",
"QtQt.#.#.#.#.#.#.#.#.#.#.#.#.#.d.b.e.f.g.h.b.i.j.k.#.#.#.#.#QtQt",
"QtQt.#.#.#.#.#.#.#.#.#.#.#.#.#.l.m.n.o.p.q.b.r.s.t.#.#.#.#.#QtQt",
"QtQt.#.#.#.#.#.#.#.#.#.#.#.#.d.b.u.v.w.q.x.b.y.z.A.#.#.#.#.#QtQt",
"QtQt.#.#.#.#.#.#.#.#.#.#.#.#.l.m.B.C.D.E.F.b.G.H.A.#.#.#.#.#QtQt",
"QtQt.#.#.#.#.#.#.#.#.#.#.#.d.b.I.J.K.L.M.b.N.O.P.t.#.#.#.#.#QtQt",
"QtQt.#.#.#.#.#.#.#.#.#.#.#.l.Q.R.S.T.U.V.b.W.X.Y.d.#.#.#.#.#QtQt",
"QtQt.#.#.#.#.#.#.#.#.#.#.d.b.Z.0.1.2.3.b.4.5.6.7.#.#.#.#.#.#QtQt",
"QtQt.#.#.#.#.#.#.#.#.#.#.l.8.9.0.1.2#..b.W###a.d.#.#.#.#.#.#QtQt",
"QtQt.#.#.#.#.#.#.#.#.#.d.b#b.0.1.2#c.b#d.l#e.7.#.#.#.#.#.#.#QtQt",
"QtQt.#.#.#.#.#.#.#.#.#.l.8#f.0.1.2#g.b#h#i#j.d.#.#.#.#.#.#.#QtQt",
"QtQt.#.#.#.#.#.#.#.#.k.b#k.0.1.2#l.b#m.l#n#o.#.#.#.#.#.#.#.#QtQt",
"QtQt.#.#.#.#.#.#.#.##p.8#q.0.1.2#r.b.W###a.d.#.#.#.#.#.#.#.#QtQt",
"QtQt.#.#.#.#.#.#.#.##s#t#u#v#v#l.b#m.5.6.7.#.#.#.#.#.#.#.#.#QtQt",
"QtQt.#.#.#.#.#.#.#.d.b#w#x#v#l#r.b.W###a.d.#.#.#.#.#.#.#.#.#QtQt",
"QtQt.#.#.#.#.#.#.#.t.b#y#z#A#B.b#C#D.6.7.#.#.#.#.#.#.#.#.#.#QtQt",
"QtQt.#.#.#.#.#.#.#.A.b#E#F#G.b#H#I#J#K.d.#.#.#.#.#.#.#.#.#.#QtQt",
"QtQt.#.#.#.#.#.#.#.A.b#L#M.b#N#O#P#Q.A.#.#.#.#.#.#.#.#.#.#.#QtQt",
"QtQt.#.#.#.#.#.#.#.A.b#R.b#S#I#P#T.7.k.#.#.#.#.#.#.#.#.#.#.#QtQt",
"QtQt.#.#.#.#.#.#.#.A.b.b#U.G#J#V.7.k.#.#.#.#.#.#.#.#.#.#.#.#QtQt",
"QtQt.#.#.#.#.#.#.#.t.b#W.l#X#j.A.k.#.#.#.#.#.#.#.#.#.#.#.#.#QtQt",
"QtQt.#.#.#.#.#.#.#.d#V#J#Y#Z.A.#.#.#.#.#.#.#.#.#.#.#.#.#.#.#QtQt",
"QtQt.#.#.#.#.#.#.#.#.#.#.#.#.#.#.#.#.#.#.#.#.#.#.#.#.#.#.#.#QtQt",
"QtQt.#.#.#.#.#.#.#.#.#.#.#.#.#.#.#.#.#.#.#.#.#.#.#.#.#.#.#.#QtQt",
"QtQt.#.#.#.#.#.#.#.#.#.#.#.#.#.#.#.#.#.#.#.#.#.#.#.#.#.#.#.#QtQt",
"QtQtQtQtQtQtQtQtQtQtQtQtQtQtQtQtQtQtQtQtQtQtQtQtQtQtQtQtQtQtQtQt",
"QtQtQtQtQtQtQtQtQtQtQtQtQtQtQtQtQtQtQtQtQtQtQtQtQtQtQtQtQtQtQtQt"};
