/* XPM */
static char *dummy[]={
"32 32 93 2",
".u c #000000",
".z c #040404",
".G c #050401",
".S c #0b0905",
".v c #0f0e07",
".4 c #110f09",
".w c #14120a",
".7 c #15120b",
".r c #1b1a18",
"#. c #211e11",
"#r c #211e17",
".q c #22211e",
"#q c #252113",
".y c #282623",
"#o c #2c2716",
"#p c #2c2717",
"## c #2e2818",
"#b c #35301c",
"#m c #35301f",
".s c #363430",
"#k c #38331e",
"#a c #3a341d",
"#h c #3f3825",
".H c #3f3925",
".x c #403d39",
".t c #44413c",
"#c c #453d24",
"#e c #463e23",
".K c #4d4a44",
"#n c #4f4c46",
"#f c #50472a",
".k c #50482a",
".C c #534f4a",
".h c #564c2c",
".j c #594f2f",
".l c #5b5130",
".g c #5d5230",
".m c #5e5331",
".i c #605532",
".N c #615633",
".B c #6b6039",
"#g c #6d633b",
".f c #72653c",
".p c #776b40",
"#j c #7b766d",
"#l c #807345",
".D c #8a847a",
"#i c #958f84",
".e c #a99859",
".I c #b3ab9f",
"#v c #b5ada0",
"#d c #b6aea1",
".T c #b8b0a3",
".8 c #b9b1a4",
"#u c #bab2a5",
"#w c #bbb3a6",
".L c #beb6a8",
"#t c #c6bdaf",
".X c #c7beb0",
"#x c #c8bfb1",
".O c #cac1b3",
".A c #cbc2b4",
".E c #cdc4b6",
".J c #d2c9ba",
".P c #d3cabb",
".F c #d9d0c0",
".6 c #dad1c1",
".0 c #dbd2c2",
"#y c #ddd3c4",
".W c #dfd5c6",
".U c #e1d7c7",
"#z c #e3d9c9",
".M c #e4daca",
".9 c #e5dbcb",
".Y c #e6dccc",
"#s c #e7ddcd",
".1 c #e8dece",
".Q c #e9dfcf",
".n c #ebe1d0",
".Z c #ede3d2",
"#A c #eee4d3",
".R c #f2e8d6",
".V c #f3e9d7",
".o c #f7ecdb",
".5 c #f8eddc",
".2 c #f9eedd",
".3 c #faefde",
".d c #fbf0de",
".c c #fcf1df",
".b c #fdf2e0",
".a c #fef3e1",
"Qt c #ffb760",
".# c #fff4e2",
"QtQtQtQtQtQtQtQtQtQtQtQtQtQtQtQtQtQtQtQtQtQtQtQtQtQtQtQtQtQtQtQt",
"QtQtQtQtQtQtQtQtQtQtQtQtQtQtQtQtQtQtQtQtQtQtQtQtQtQtQtQtQtQtQtQt",
"QtQt.#.#.#.#.#.#.#.#.#.#.#.#.#.#.#.#.#.#.#.#.#.#.#.#.#.#.#.#QtQt",
"QtQt.#.#.#.#.#.#.#.#.#.#.#.#.#.#.#.#.#.#.#.#.#.#.#.#.#.#.#.#QtQt",
"QtQt.#.#.#.#.#.#.#.#.#.#.#.#.#.#.#.#.#.#.#.#.#.#.#.#.#.#.#.#QtQt",
"QtQt.#.#.#.#.#.#.#.#.#.#.#.#.#.#.#.#.#.#.#.#.#.#.#.#.#.#.#.#QtQt",
"QtQt.#.#.#.#.#.#.#.#.#.#.#.#.#.#.#.#.#.#.#.#.#.#.#.#.#.#.#.#QtQt",
"QtQt.#.#.#.#.#.#.a.b.c.c.d.d.d.d.d.d.d.d.d.c.b.a.#.#.#.#.#.#QtQt",
"QtQt.#.#.#.#.#.a.e.f.g.h.i.j.h.k.l.l.l.l.l.m.n.o.a.#.#.#.#.#QtQt",
"QtQt.#.#.#.#.#.b.p.q.r.s.t.u.v.u.w.x.x.y.z.u.A.n.c.#.#.#.#.#QtQt",
"QtQt.#.#.#.#.#.c.B.C.D.E.F.u.G.u.H.I.J.I.K.u.L.M.d.#.#.#.#.#QtQt",
"QtQt.#.#.#.#.#.c.N.O.P.Q.R.u.S.u.H.T.U.V.W.u.X.Y.d.#.#.#.#.#QtQt",
"QtQt.#.#.#.#.#.b.Z.0.1.2.3.u.4.u.H.T.M.d.5.Y.6.Z.b.#.#.#.#.#QtQt",
"QtQt.#.#.#.#.#.a.2.R.5.a.d.u.7.u.H.8.9.d.b.o.R.2.a.#.#.#.#.#QtQt",
"QtQt.#.#.#.#.#.#.a.b.a.#.d.u#..u.H.T.9.d.#.a.b.a.#.#.#.#.#.#QtQt",
"QtQt.#.#.#.#.#.#.#.#.#.#.d.u##.u.H.T.9.d.#.#.#.#.#.#.#.#.#.#QtQt",
"QtQt.#.#.#.#.#.#.#.#.#.#.d.u#a.u#b.T.M.d.#.#.#.#.#.#.#.#.#.#QtQt",
"QtQt.#.#.#.#.#.#.#.#.#.#.d.u#c.u#b#d.M.d.#.#.#.#.#.#.#.#.#.#QtQt",
"QtQt.#.#.#.#.#.#.#.#.#.#.d.u#e.u.H#d.M.d.#.#.#.#.#.#.#.#.#.#QtQt",
"QtQt.#.#.#.#.#.#.#.#.#.#.d.u#f.u.H.T.M.d.#.#.#.#.#.#.#.#.#.#QtQt",
"QtQt.#.#.#.#.#.#.#.#.#.#.X.u#g.u#h#i.M.d.#.#.#.#.#.#.#.#.#.#QtQt",
"QtQt.#.#.#.#.#.#.#.#.#.A#j#k#l.u#m#n.I.o.a.#.#.#.#.#.#.#.#.#QtQt",
"QtQt.#.#.#.#.#.#.#.#.a.u.u#o.u.u#p#q#r#s.5.a.#.#.#.#.#.#.#.#QtQt",
"QtQt.#.#.#.#.#.#.#.#.b.R.6#t#u#v#d#w#x#y.V.a.#.#.#.#.#.#.#.#QtQt",
"QtQt.#.#.#.#.#.#.#.#.a.2.Z.Y.M#z#z.M.Y#A.2.a.#.#.#.#.#.#.#.#QtQt",
"QtQt.#.#.#.#.#.#.#.#.#.a.b.c.c.d.d.c.c.b.a.#.#.#.#.#.#.#.#.#QtQt",
"QtQt.#.#.#.#.#.#.#.#.#.#.#.#.#.#.#.#.#.#.#.#.#.#.#.#.#.#.#.#QtQt",
"QtQt.#.#.#.#.#.#.#.#.#.#.#.#.#.#.#.#.#.#.#.#.#.#.#.#.#.#.#.#QtQt",
"QtQt.#.#.#.#.#.#.#.#.#.#.#.#.#.#.#.#.#.#.#.#.#.#.#.#.#.#.#.#QtQt",
"QtQt.#.#.#.#.#.#.#.#.#.#.#.#.#.#.#.#.#.#.#.#.#.#.#.#.#.#.#.#QtQt",
"QtQtQtQtQtQtQtQtQtQtQtQtQtQtQtQtQtQtQtQtQtQtQtQtQtQtQtQtQtQtQtQt",
"QtQtQtQtQtQtQtQtQtQtQtQtQtQtQtQtQtQtQtQtQtQtQtQtQtQtQtQtQtQtQtQt"};
