/* XPM */
static char *dummy[]={
"32 32 7 1",
"a c #000000",
"b c #404040",
"c c #7f7f7f",
"d c #808080",
". c #ffb760",
"# c #fff4e2",
"e c #ffffff",
"................................",
"................................",
"..############################..",
"..############################..",
"..############################..",
"..############################..",
"..############################..",
"..#####aaaaaaaaaaaaaaaaaa#####..",
"..#####abccccccccccccccba#####..",
"..#####adeeeeeeeeeeeeeeda#####..",
"..#####adeeeeeeeeeeeeeeda#####..",
"..#####adeeeeeeeeeeeeeeda#####..",
"..#####adeeeeeeeeeeeeeeda#####..",
"..#####adeeeeeeeeeeeeeeda#####..",
"..#####adeeeeeeeeeeeeeeda#####..",
"..#####adeeeeeeeeeeeeeeda#####..",
"..#####adeeeeeeeeeeeeeeda#####..",
"..#####adeeeeeeeeeeeeeeda#####..",
"..#####adeeeeeeeeeeeeeeda#####..",
"..#####adeeeeeeeeeeeeeeda#####..",
"..#####adeeeeeeeeeeeeeeda#####..",
"..#####adeeeeeeeeeeeeeeda#####..",
"..#####adeeeeeeeeeeeeeeda#####..",
"..#####abddddddddddddddba#####..",
"..#####aaaaaaaaaaaaaaaaaa#####..",
"..############################..",
"..############################..",
"..############################..",
"..############################..",
"..############################..",
"................................",
"................................"};
